 http://www.imdb.com/title/tt1477076/

Plot:

As a deadly battle rages over Jigsawâ™s brutal legacy, a group of Jigsaw survivors gathers to seek the support of self-help guru and fellow survivor Bobby Dagen, a man whose own dark secrets unleash a new wave of terror

Size: 907.315 MB| Language: English | Subtitles: N/A

Genre: Horror | Mystery| Director: Kevin Greutert|

Starring: Tobin Bell, Costas Mandylor, Betsy Russell, Cary Elwes, Sean Patrick Flanery

Video

ID: 0
Format: MPEG-4 Visual
Format settings, BVOP: Yes
Format settings, QPel: No
Format settings, GMC: No warppoints
Format settings, Matrix: Default (H.263)
Codec ID: DX50
Codec ID/Hint: DivX 5
Duration: 1h 24mn
Bit rate: 1 340 Kbps
Width: 608 pixels
Height: 288 pixels
Display aspect ratio: 2.2:1
Frame rate: 25.000 fps
Color space: YUV
Chroma subsampling: 4:2:0
Bit depth: 8 bits
Scan type: Progressive
Bits/(Pixel*Frame): 0.306
Stream size: 813 MiB (91%)
Writing library: DivX 6.8.5 (UTC 2009-08-20)

Audio

ID: 1
Format: MPEG Audio
Format version: Version 1
Format profile: Layer 3
Codec ID: 55
Codec ID/Hint: MP3
Duration: 1h 24mn
Bit rate mode: Constant
Bit rate: 128 Kbps
Channel(s): 2 channels
Sampling rate: 44.1 KHz
Video delay: 4ms
Stream size: 77.7 MiB (9%)
Alignment: Split accross interleaves
Interleave, duration: 40 ms (1.00 video frame)
Interleave, preload duration: 500 ms


Release Notes:

Thanx to both sources. Video was decent for first cam out, adjusted colors and brightness/ contrast ect. Rotated and cropped slightly to eliminate camera movement. Now as for the audio, two different audio sources used, but only for 2 minutes toward the end. Beginning and end scenes intact, audio is COMPLETE. Enjoy.

SCREENS:
 
http://i.mavrev.com/i/103041170711.jpg 
http://i.mavrev.com/i/103041170832.jpg 
http://i.mavrev.com/i/103041170850.jpg 
http://i.mavrev.com/i/103041270958.jpg


SEED AND ENJOY FOLKS!!!